<svg width="1363" height="1063" viewBox="0 0 1363 1063" fill="none" xmlns="http://www.w3.org/2000/svg">
<path d="M920.986 120.863C930.284 112.172 944.932 112.619 952.992 122.467C991.787 169.872 1017.55 226.747 1027.51 287.459C1038.72 355.769 1029.43 425.869 1000.79 488.894C972.164 551.919 925.487 605.039 866.666 641.536C807.846 678.033 739.523 696.268 670.339 693.935C601.155 691.602 534.216 668.806 477.988 628.43C421.759 588.054 378.766 531.911 354.446 467.1C330.126 402.29 325.57 331.723 341.355 264.323C355.384 204.42 384.921 149.409 426.822 104.726C435.527 95.4428 450.172 95.9839 458.863 105.281V105.281C467.553 114.578 466.989 129.104 458.376 138.474C423.087 176.869 398.178 223.806 386.228 274.832C372.521 333.357 376.477 394.632 397.595 450.908C418.713 507.185 456.045 555.935 504.869 590.995C553.694 626.055 611.818 645.849 671.892 647.874C731.966 649.9 791.292 634.066 842.367 602.375C893.443 570.683 933.973 524.558 958.834 469.832C983.695 415.106 991.769 354.237 982.036 294.922C973.55 243.206 951.859 194.698 919.236 154.013C911.274 144.084 911.689 129.553 920.986 120.863V120.863Z" fill="url(#paint0_linear_207_2)" fill-opacity="0.2"/>
<g filter="url(#filter0_d_207_2)">
<path d="M725.076 361.491C733.794 370.432 742.085 379.791 831.5 469.207C831.388 551.678 764.498 618.5 682 618.5C599.502 618.5 532.612 551.678 532.5 469.207C610.01 391.697 628.964 372.743 638.759 362.948C647.864 353.843 649.056 352.651 682.007 319.7C713.145 349.64 719.207 355.471 725.076 361.491Z" stroke="url(#paint1_linear_207_2)"/>
<path d="M725.092 374.399C733.807 382.891 742.117 391.799 831.5 476.714C831.378 555.016 764.516 618.5 682 618.5C599.484 618.5 532.622 555.016 532.5 476.714C608.388 404.621 628.14 385.856 638.125 376.37C647.818 367.162 648.309 366.696 682.007 334.683C713.165 363.145 719.221 368.678 725.092 374.399Z" stroke="url(#paint2_linear_207_2)"/>
<path d="M725.113 389.89C733.824 397.842 742.158 406.208 831.5 485.724C831.364 559.022 764.539 618.5 682 618.5C599.461 618.5 532.636 559.022 532.5 485.724C608.366 418.203 628.122 400.62 638.109 391.732C647.807 383.1 648.291 382.67 682.006 352.663C713.191 379.35 719.238 384.526 725.113 389.89Z" stroke="url(#paint3_linear_207_2)"/>
<path d="M725.137 406.24C733.844 413.624 742.204 421.416 831.5 495.235C831.346 563.249 764.565 618.5 682 618.5C599.435 618.5 532.654 563.249 532.5 495.235C608.378 432.509 628.121 416.188 638.104 407.936C647.795 399.924 648.288 399.517 682.006 371.643C713.221 396.455 719.258 401.255 725.137 406.24Z" stroke="url(#paint4_linear_207_2)"/>
<path d="M725.161 421.729C733.864 428.574 742.251 435.821 831.5 504.246C831.413 535.717 814.741 564.236 787.762 584.92C760.712 605.659 723.321 618.5 682 618.5C640.679 618.5 603.288 605.659 576.238 584.92C549.259 564.236 532.587 535.717 532.5 504.246C608.339 446.103 628.094 430.958 638.079 423.302C647.782 415.864 648.262 415.496 682.006 389.625C713.251 412.659 719.278 417.102 725.161 421.729Z" stroke="url(#paint5_linear_207_2)"/>
<path d="M725.188 438.078C733.887 444.355 742.303 451.023 831.5 513.759C831.4 542.583 814.75 568.721 787.778 587.691C760.728 606.716 723.331 618.5 682 618.5C640.669 618.5 603.272 606.716 576.222 587.691C549.25 568.721 532.6 542.583 532.5 513.759L682.006 408.607C713.285 429.76 719.301 433.83 725.188 438.078Z" stroke="url(#paint6_linear_207_2)"/>
<path d="M725.213 451.845C733.907 457.644 742.349 463.822 831.499 521.771C831.387 548.362 814.759 572.496 787.794 590.023C760.741 607.607 723.339 618.5 682 618.5C640.661 618.5 603.259 607.607 576.206 590.023C549.241 572.496 532.613 548.362 532.501 521.771L682.005 424.593C713.314 444.161 719.321 447.916 725.213 451.845Z" stroke="url(#paint7_linear_207_2)"/>
<path d="M725.242 467.331C733.932 472.593 742.403 478.217 831.499 530.785C831.369 554.862 814.772 576.742 787.812 592.648C760.757 608.611 723.348 618.5 682 618.5C640.652 618.5 603.243 608.611 576.188 592.648C549.228 576.742 532.631 554.862 532.501 530.785L682.005 442.577C713.349 460.359 719.346 463.762 725.242 467.331Z" stroke="url(#paint8_linear_207_2)"/>
<path d="M725.274 483.676C733.96 488.371 742.462 493.407 831.499 540.301C831.345 561.72 814.789 581.222 787.833 595.419C760.774 609.67 723.357 618.5 682 618.5C640.643 618.5 603.226 609.67 576.167 595.419C549.211 581.222 532.655 561.72 532.501 540.301L682.005 461.562C713.387 477.455 719.373 480.487 725.274 483.676Z" stroke="url(#paint9_linear_207_2)"/>
<path d="M725.303 497.439C733.985 501.657 742.512 506.194 831.499 548.316C831.319 567.492 814.807 584.994 787.852 597.752C760.788 610.563 723.364 618.5 682 618.5C640.636 618.5 603.212 610.563 576.148 597.752C549.193 584.994 532.681 567.492 532.501 548.316C608.281 512.446 628.016 503.105 637.996 498.382L682.004 477.551C713.42 491.849 719.397 494.57 725.303 497.439Z" stroke="url(#paint10_linear_207_2)"/>
<path d="M725.334 512.06C734.013 515.771 742.567 519.777 831.498 556.832C831.392 565.167 827.291 573.153 819.861 580.471C812.331 587.889 801.41 594.592 787.874 600.232C760.804 611.512 723.372 618.5 682 618.5C640.628 618.5 603.196 611.512 576.126 600.232C562.59 594.592 551.669 587.889 544.139 580.471C536.709 573.153 532.608 565.167 532.502 556.832C608.312 525.245 628.021 517.033 637.993 512.878L682.004 494.54C713.455 507.141 719.424 509.532 725.334 512.06Z" stroke="url(#paint11_linear_207_2)"/>
<path d="M725.368 527.539C734.044 530.715 742.624 534.152 831.497 565.851C831.366 572.907 827.297 579.696 819.89 585.942C812.362 592.29 801.439 598.029 787.898 602.859C760.82 612.517 723.38 618.5 682 618.5C640.62 618.5 603.18 612.517 576.102 602.859C562.561 598.029 551.638 592.29 544.11 585.942C536.703 579.696 532.634 572.907 532.503 565.851C608.29 538.82 627.996 531.792 637.968 528.235L682.003 512.529C713.493 523.329 719.453 525.373 725.368 527.539Z" stroke="url(#paint12_linear_207_2)"/>
<path d="M725.399 541.296C734.072 543.996 742.674 546.926 831.495 573.869C831.334 579.781 827.307 585.507 819.921 590.804C812.393 596.203 801.467 601.086 787.921 605.195C760.835 613.411 723.386 618.5 682 618.5C640.614 618.5 603.165 613.411 576.079 605.195C562.533 601.086 551.607 596.203 544.079 590.804C536.693 585.507 532.666 579.781 532.505 573.869C608.255 550.892 627.966 544.913 637.939 541.888L682.003 528.521C713.526 537.716 719.479 539.452 725.399 541.296Z" stroke="url(#paint13_linear_207_2)"/>
<path d="M725.435 556.77C734.105 558.935 742.728 561.291 831.491 582.89C831.279 587.503 827.324 592.039 819.963 596.274C812.431 600.607 801.5 604.526 787.948 607.823C760.852 614.417 723.394 618.5 682 618.5C640.606 618.5 603.148 614.417 576.052 607.823C562.5 604.526 551.569 600.607 544.037 596.274C536.676 592.039 532.721 587.503 532.509 582.89C609.863 564.068 628.763 559.469 638.542 557.089L682.002 546.514C713.562 553.898 719.509 555.29 725.435 556.77Z" stroke="url(#paint14_linear_207_2)"/>
<path d="M725.466 570.522C734.134 572.213 742.773 574.055 831.483 590.91C831.348 592.553 830.405 594.212 828.612 595.877C826.67 597.68 823.778 599.443 820.007 601.137C812.469 604.523 801.53 607.585 787.973 610.161C760.867 615.311 723.4 618.5 682 618.5C640.6 618.5 603.133 615.311 576.027 610.161C562.47 607.585 551.531 604.523 543.993 601.137C540.222 599.443 537.33 597.68 535.388 595.877C533.595 594.212 532.652 592.553 532.517 590.91L638.542 570.766L682.002 562.508C713.593 568.28 719.536 569.366 725.466 570.522Z" stroke="url(#paint15_linear_207_2)"/>
<path d="M725.496 584.273C734.163 585.489 742.814 586.815 831.46 598.931C831.271 599.962 830.397 601.065 828.675 602.215C826.733 603.512 823.836 604.783 820.059 606.003C812.51 608.443 801.56 610.647 787.998 612.5C760.882 616.206 723.406 618.5 682 618.5C640.594 618.5 603.118 616.206 576.002 612.5C562.44 610.647 551.49 608.443 543.941 606.003C540.164 604.783 537.267 603.512 535.325 602.215C533.603 601.065 532.729 599.962 532.54 598.931L637.923 584.528L682.001 578.504C713.623 582.66 719.563 583.44 725.496 584.273Z" stroke="url(#paint16_linear_207_2)"/>
<path d="M367.984 727.122C355.768 740.587 334.861 741.672 322.228 728.597C261.425 665.664 218.061 587.716 196.745 502.448C172.761 406.51 177.764 305.614 211.123 212.52C244.481 119.426 304.696 38.3137 384.153 -20.5586C463.61 -79.4308 558.741 -113.419 657.514 -118.226C756.288 -123.032 854.269 -98.441 939.067 -47.5617C1023.86 3.31756 1091.67 78.1997 1133.91 167.615C1176.15 257.031 1190.93 356.964 1176.37 454.778C1163.43 541.713 1127.84 623.502 1073.44 692.042C1062.13 706.282 1041.22 707.232 1027.76 695.016V695.016C1014.29 682.8 1013.39 662.053 1024.55 647.701C1070.28 588.892 1100.23 519.139 1111.25 445.087C1123.89 360.153 1111.06 273.379 1074.38 195.737C1037.7 118.096 978.825 53.0738 905.193 8.89412C831.561 -35.2856 746.482 -56.6387 660.715 -52.4651C574.947 -48.2915 492.343 -18.7786 423.349 32.3416C354.354 83.4617 302.068 153.893 273.102 234.729C244.136 315.565 239.792 403.175 260.618 486.481C278.775 559.112 315.355 625.628 366.582 679.719C379.083 692.919 380.2 713.656 367.984 727.122V727.122Z" fill="url(#paint17_linear_207_2)" fill-opacity="0.2"/>
<path d="M920.986 120.863C930.284 112.172 944.932 112.619 952.992 122.467C991.787 169.871 1017.55 226.746 1027.51 287.459C1038.72 355.769 1029.43 425.868 1000.79 488.894C972.164 551.919 925.487 605.038 866.666 641.535C807.846 678.032 739.523 696.268 670.339 693.935C601.155 691.602 534.216 668.806 477.988 628.43C421.759 588.054 378.766 531.911 354.446 467.1C330.126 402.29 325.57 331.723 341.355 264.323C355.384 204.42 384.921 149.409 426.822 104.726C435.527 95.4426 450.172 95.9838 458.863 105.281V105.281C467.553 114.578 466.989 129.104 458.376 138.474C423.087 176.868 398.178 223.806 386.228 274.832C372.521 333.357 376.477 394.632 397.595 450.908C418.713 507.185 456.045 555.935 504.869 590.995C553.694 626.054 611.818 645.849 671.892 647.874C731.966 649.9 791.292 634.066 842.367 602.374C893.443 570.683 933.973 524.558 958.834 469.832C983.695 415.106 991.769 354.237 982.036 294.922C973.55 243.206 951.859 194.697 919.236 154.013C911.274 144.084 911.689 129.553 920.986 120.863V120.863Z" fill="url(#paint18_linear_207_2)" fill-opacity="0.2"/>
</g>
<circle cx="1047.29" cy="671.292" r="49.6698" transform="rotate(-176.89 1047.29 671.292)" fill="url(#paint19_radial_207_2)"/>
<circle cx="458.239" cy="112.238" r="39.171" transform="rotate(-176.89 458.239 112.238)" fill="url(#paint20_radial_207_2)"/>
<defs>
<filter id="filter0_d_207_2" x="177.817" y="-118.817" width="1008" height="864.652" filterUnits="userSpaceOnUse" color-interpolation-filters="sRGB">
<feFlood flood-opacity="0" result="BackgroundImageFix"/>
<feColorMatrix in="SourceAlpha" type="matrix" values="0 0 0 0 0 0 0 0 0 0 0 0 0 0 0 0 0 0 127 0" result="hardAlpha"/>
<feOffset dy="4"/>
<feGaussianBlur stdDeviation="2"/>
<feComposite in2="hardAlpha" operator="out"/>
<feColorMatrix type="matrix" values="0 0 0 0 0 0 0 0 0 0 0 0 0 0 0 0 0 0 0.25 0"/>
<feBlend mode="normal" in2="BackgroundImageFix" result="effect1_dropShadow_207_2"/>
<feBlend mode="normal" in="SourceGraphic" in2="effect1_dropShadow_207_2" result="shape"/>
</filter>
<linearGradient id="paint0_linear_207_2" x1="392.5" y1="147.634" x2="971.768" y2="540.634" gradientUnits="userSpaceOnUse">
<stop stop-color="#FFF95E"/>
<stop offset="1" stop-color="#D9D9D9" stop-opacity="0"/>
</linearGradient>
<linearGradient id="paint1_linear_207_2" x1="532" y1="469" x2="682" y2="619" gradientUnits="userSpaceOnUse">
<stop stop-color="#6100FF"/>
<stop offset="1" stop-color="#FFF95E"/>
</linearGradient>
<linearGradient id="paint2_linear_207_2" x1="532" y1="476.5" x2="674.313" y2="626.303" gradientUnits="userSpaceOnUse">
<stop stop-color="#6100FF"/>
<stop offset="1" stop-color="#FFF95E"/>
</linearGradient>
<linearGradient id="paint3_linear_207_2" x1="532" y1="485.5" x2="664.599" y2="634.487" gradientUnits="userSpaceOnUse">
<stop stop-color="#6100FF"/>
<stop offset="1" stop-color="#FFF95E"/>
</linearGradient>
<linearGradient id="paint4_linear_207_2" x1="532" y1="495" x2="653.787" y2="642.323" gradientUnits="userSpaceOnUse">
<stop stop-color="#6100FF"/>
<stop offset="1" stop-color="#FFF95E"/>
</linearGradient>
<linearGradient id="paint5_linear_207_2" x1="532" y1="504" x2="643.057" y2="648.856" gradientUnits="userSpaceOnUse">
<stop stop-color="#6100FF"/>
<stop offset="1" stop-color="#FFF95E"/>
</linearGradient>
<linearGradient id="paint6_linear_207_2" x1="532" y1="513.5" x2="631.288" y2="654.667" gradientUnits="userSpaceOnUse">
<stop stop-color="#6100FF"/>
<stop offset="1" stop-color="#FFF95E"/>
</linearGradient>
<linearGradient id="paint7_linear_207_2" x1="532" y1="521.5" x2="621.104" y2="658.582" gradientUnits="userSpaceOnUse">
<stop stop-color="#6100FF"/>
<stop offset="1" stop-color="#FFF95E"/>
</linearGradient>
<linearGradient id="paint8_linear_207_2" x1="532" y1="530.5" x2="609.465" y2="661.796" gradientUnits="userSpaceOnUse">
<stop stop-color="#6100FF"/>
<stop offset="1" stop-color="#FFF95E"/>
</linearGradient>
<linearGradient id="paint9_linear_207_2" x1="532" y1="540" x2="597.144" y2="663.691" gradientUnits="userSpaceOnUse">
<stop stop-color="#6100FF"/>
<stop offset="1" stop-color="#FFF95E"/>
</linearGradient>
<linearGradient id="paint10_linear_207_2" x1="532" y1="548" x2="586.911" y2="664.009" gradientUnits="userSpaceOnUse">
<stop stop-color="#6100FF"/>
<stop offset="1" stop-color="#FFF95E"/>
</linearGradient>
<linearGradient id="paint11_linear_207_2" x1="532" y1="556.5" x2="576.379" y2="663.009" gradientUnits="userSpaceOnUse">
<stop stop-color="#6100FF"/>
<stop offset="1" stop-color="#FFF95E"/>
</linearGradient>
<linearGradient id="paint12_linear_207_2" x1="532" y1="565.5" x2="565.856" y2="660.424" gradientUnits="userSpaceOnUse">
<stop stop-color="#6100FF"/>
<stop offset="1" stop-color="#FFF95E"/>
</linearGradient>
<linearGradient id="paint13_linear_207_2" x1="532" y1="573.5" x2="557.277" y2="656.832" gradientUnits="userSpaceOnUse">
<stop stop-color="#6100FF"/>
<stop offset="1" stop-color="#FFF95E"/>
</linearGradient>
<linearGradient id="paint14_linear_207_2" x1="532" y1="582.5" x2="548.77" y2="651.419" gradientUnits="userSpaceOnUse">
<stop stop-color="#6100FF"/>
<stop offset="1" stop-color="#FFF95E"/>
</linearGradient>
<linearGradient id="paint15_linear_207_2" x1="532" y1="590.5" x2="542.453" y2="645.514" gradientUnits="userSpaceOnUse">
<stop stop-color="#6100FF"/>
<stop offset="1" stop-color="#FFF95E"/>
</linearGradient>
<linearGradient id="paint16_linear_207_2" x1="532" y1="598.5" x2="537.501" y2="638.748" gradientUnits="userSpaceOnUse">
<stop stop-color="#6100FF"/>
<stop offset="1" stop-color="#FFF95E"/>
</linearGradient>
<linearGradient id="paint17_linear_207_2" x1="1117.26" y1="626.92" x2="246.371" y2="135.446" gradientUnits="userSpaceOnUse">
<stop stop-color="#6100FF"/>
<stop offset="1" stop-color="#D9D9D9" stop-opacity="0"/>
</linearGradient>
<linearGradient id="paint18_linear_207_2" x1="392.5" y1="147.634" x2="971.768" y2="540.633" gradientUnits="userSpaceOnUse">
<stop stop-color="#FFF95E"/>
<stop offset="1" stop-color="#D9D9D9" stop-opacity="0"/>
</linearGradient>
<radialGradient id="paint19_radial_207_2" cx="0" cy="0" r="1" gradientUnits="userSpaceOnUse" gradientTransform="translate(1022.06 640.496) rotate(46.3388) scale(114.247)">
<stop stop-color="#0F1122"/>
<stop offset="0.651792" stop-color="#0F1122"/>
<stop offset="0.943682" stop-color="white"/>
</radialGradient>
<radialGradient id="paint20_radial_207_2" cx="0" cy="0" r="1" gradientUnits="userSpaceOnUse" gradientTransform="translate(438.34 87.9525) rotate(46.3388) scale(90.0987)">
<stop stop-color="#0F1122"/>
<stop offset="0.651792" stop-color="#0F1122"/>
<stop offset="0.943682" stop-color="white"/>
</radialGradient>
</defs>
</svg>
